name D:\school\WTK\thesis\model\3dpredictsim\Results\batch_windlass\Pog_s1_tmt_bCst_d05_k1000_WL30_ig24_act_TTM.mot
datacolumns 128
datarows 4
range 1.43654256 1.47963884
endheader
time	pelvis_tilt	pelvis_list	pelvis_rotation	pelvis_tx	pelvis_ty	pelvis_tz	hip_flexion_l	hip_adduction_l	hip_rotation_l	hip_flexion_r	hip_adduction_r	hip_rotation_r	knee_angle_l	knee_angle_r	ankle_angle_l	ankle_angle_r	subtalar_angle_l	subtalar_angle_r	tmt_angle_l	tmt_angle_r	mtp_angle_l	mtp_angle_r	lumbar_extension	lumbar_bending	lumbar_rotation	arm_flex_l	arm_add_l	arm_rot_l	arm_flex_r	arm_add_r	arm_rot_r	elbow_flex_l	elbow_flex_r	pro_sup_l	pro_sup_r	glut_med1_l/activation	glut_med2_l/activation	glut_med3_l/activation	glut_min1_l/activation	glut_min2_l/activation	glut_min3_l/activation	semimem_l/activation	semiten_l/activation	bifemlh_l/activation	bifemsh_l/activation	sar_l/activation	add_long_l/activation	add_brev_l/activation	add_mag1_l/activation	add_mag2_l/activation	add_mag3_l/activation	tfl_l/activation	pect_l/activation	grac_l/activation	glut_max1_l/activation	glut_max2_l/activation	glut_max3_l/activation	iliacus_l/activation	psoas_l/activation	quad_fem_l/activation	gem_l/activation	peri_l/activation	rect_fem_l/activation	vas_med_l/activation	vas_int_l/activation	vas_lat_l/activation	med_gas_l/activation	lat_gas_l/activation	soleus_l/activation	tib_post_l/activation	flex_dig_l/activation	flex_hal_l/activation	tib_ant_l/activation	per_brev_l/activation	per_long_l/activation	per_tert_l/activation	ext_dig_l/activation	ext_hal_l/activation	ercspn_l/activation	intobl_l/activation	extobl_l/activation	glut_med1_r/activation	glut_med2_r/activation	glut_med3_r/activation	glut_min1_r/activation	glut_min2_r/activation	glut_min3_r/activation	semimem_r/activation	semiten_r/activation	bifemlh_r/activation	bifemsh_r/activation	sar_r/activation	add_long_r/activation	add_brev_r/activation	add_mag1_r/activation	add_mag2_r/activation	add_mag3_r/activation	tfl_r/activation	pect_r/activation	grac_r/activation	glut_max1_r/activation	glut_max2_r/activation	glut_max3_r/activation	iliacus_r/activation	psoas_r/activation	quad_fem_r/activation	gem_r/activation	peri_r/activation	rect_fem_r/activation	vas_med_r/activation	vas_int_r/activation	vas_lat_r/activation	med_gas_r/activation	lat_gas_r/activation	soleus_r/activation	tib_post_r/activation	flex_dig_r/activation	flex_hal_r/activation	tib_ant_r/activation	per_brev_r/activation	per_long_r/activation	per_tert_r/activation	ext_dig_r/activation	ext_hal_r/activation	ercspn_r/activation	intobl_r/activation	extobl_r/activation	
          1.43654256	         -2.87758848	         -1.79870355	         11.33405440	          1.79567820	          0.83336773	         -0.00243189	        -14.69928946	         -7.09057870	         -3.37644017	         37.39904629	         -1.10920367	         -1.76371265	        -23.76622514	        -15.32181721	         -4.43143264	          6.31123732	         20.98522337	         -2.32704246	        -13.42382958	         -0.14254080	         40.93792716	          0.46063817	         -0.08949227	         -2.06573733	         -1.26485267	          1.26120199	        -13.65044966	         12.59660133	          4.40638838	        -13.56665248	         16.53909424	         15.06455968	         14.06440070	         86.51662706	         86.51662706	          0.07680119	          0.07659415	          0.09519738	          0.11561787	          0.11800333	          0.10662624	          0.05000679	          0.05000058	          0.05000102	          0.05000119	          0.11803127	          0.05000050	          0.05000045	          0.05000056	          0.05000086	          0.05000129	          0.23853341	          0.05000207	          0.05000117	          0.05006372	          0.05003359	          0.05000545	          0.28013894	          0.22924320	          0.09519172	          0.09519617	          0.09989365	          0.34510295	          0.14695124	          0.15302680	          0.13096319	          0.14183658	          0.19883090	          0.05000005	          0.14683106	          0.16347704	          0.18899530	          0.05000027	          0.32408599	          0.36941394	          0.17005503	          0.26281828	          0.20712410	          0.05000003	          0.06009551	          0.06396736	          0.05016265	          0.05000904	          0.05000285	          0.06197217	          0.05009715	          0.05000460	          0.06197117	          0.06197320	          0.05801942	          0.07680855	          0.09033439	          0.06198267	          0.06569712	          0.07680260	          0.06198152	          0.05001560	          0.09000514	          0.06194568	          0.07680359	          0.05000426	          0.05000370	          0.05000591	          0.11799106	          0.11799120	          0.19854119	          0.07534633	          0.13690722	          0.13872127	          0.05751880	          0.06937784	          0.06341504	          0.06197149	          0.06197185	          0.06197120	          0.06197135	          0.06177912	          0.06197339	          0.45072942	          0.35054034	          0.21490977	          0.09746064	          0.55979367	          0.07684189	          0.05000011	          0.24165238	          0.11799163	
          1.45090799	         -2.90213650	         -1.78219968	         11.80750500	          1.82051914	          0.83164640	         -0.00189750	        -15.93556346	         -7.93021262	         -3.87094726	         36.82050145	         -1.00135806	         -1.75172373	        -23.14134071	        -15.74610663	         -9.21396319	          5.14716213	         21.89503647	         -2.96572486	        -14.08647867	         -0.15801559	         42.60488527	          0.53937154	          0.20345877	         -1.82962913	         -1.41370345	          1.29999152	        -13.73647901	         13.28325352	          2.13784981	        -13.55643877	         16.50889973	         15.49219941	         13.57651497	         86.51662706	         86.51662706	          0.06196651	          0.06179844	          0.07680790	          0.09328474	          0.09520876	          0.08602928	          0.05000862	          0.05001080	          0.05000104	          0.05000364	          0.09523122	          0.09166192	          0.06197262	          0.06197039	          0.05045040	          0.05000165	          0.19245521	          0.07682154	          0.05011052	          0.05000885	          0.05000562	          0.05000324	          0.22602364	          0.18495957	          0.07680340	          0.07680713	          0.08059723	          0.27843824	          0.13658593	          0.14345408	          0.13040878	          0.11443754	          0.16042208	          0.05000007	          0.11846724	          0.13189788	          0.15248661	          0.09853486	          0.26148179	          0.29805634	          0.46371997	          0.49642912	          0.16711626	          0.05747325	          0.05995208	          0.06697345	          0.16118538	          0.05000189	          0.19708246	          0.05000288	          0.05000310	          0.06960919	          0.05000024	          0.05000383	          0.05000042	          0.06197149	          0.09518788	          0.05000960	          0.05300645	          0.06196691	          0.05000906	          0.05000157	          0.07261921	          0.05000697	          0.06196823	          0.10225159	          0.05000242	          0.06197073	          0.09519843	          0.09519853	          0.19744818	          0.06200965	          0.19409186	          0.11192606	          0.30475867	          0.29309967	          0.26105100	          0.05000025	          0.05000056	          0.05000001	          0.05000019	          0.05000569	          0.05000226	          0.66168647	          0.59205114	          0.29493071	          0.53897842	          0.68314793	          0.37970771	          0.05000006	          0.19497164	          0.09519880	
          1.46527341	         -2.91688330	         -1.77153111	         12.22255802	          1.84557739	          0.82957407	         -0.00134746	        -17.15143986	         -8.76614485	         -4.32741706	         36.15555300	         -0.78952403	         -1.76009038	        -22.59542064	        -17.08095233	        -13.97664766	          3.82721076	         22.73387346	         -3.62676619	        -14.15254265	         -0.34768964	         42.56740625	          0.53318176	          0.48615111	         -1.55745953	         -1.55850534	          1.28027814	        -13.83733536	         14.03270034	         -0.25363255	        -13.55081973	         16.43901390	         15.96589846	         13.35736981	         86.51662706	         86.51662706	          0.05000079	          0.05000498	          0.06197091	          0.19392649	          0.07681791	          0.06941124	          0.05000141	          0.19472771	          0.05000022	          0.05000010	          0.07683540	          0.07395552	          0.05000190	          0.05000107	          0.05000085	          0.17511778	          0.15527807	          0.06198291	          0.05000045	          0.05001603	          0.05000962	          0.05000328	          0.18236192	          0.14923032	          0.06196725	          0.06197048	          0.06502844	          0.22465137	          0.11799093	          0.11799093	          0.11799091	          0.09233127	          0.12943285	          0.05000005	          0.09558257	          0.10641912	          0.12303063	          0.07950170	          0.21097087	          0.24993509	          0.42362805	          0.65281287	          0.13483435	          0.11291386	          0.05000008	          0.05403605	          0.13006150	          0.29207229	          0.41898912	          0.05001299	          0.06167743	          0.18276818	          0.05000231	          0.05000024	          0.05000105	          0.05000039	          0.07680159	          0.05000196	          0.05000128	          0.05000111	          0.05000136	          0.08073494	          0.05859141	          0.05002289	          0.05000055	          0.20719561	          0.16902896	          0.05000042	          0.07680875	          0.07680880	          0.15930751	          0.05003358	          0.34348129	          0.09030500	          0.24877828	          0.23720109	          0.22251093	          0.05000519	          0.05047240	          0.05176676	          0.05000019	          0.06196954	          0.06197046	          0.64684560	          0.47941768	          0.23795922	          0.43487069	          0.76342779	          0.47377983	          0.06392182	          0.18394063	          0.07680893	
          1.47963884	         -2.92558388	         -1.77976352	         12.56709636	          1.87030817	          0.82757503	         -0.00076204	        -18.21965201	         -9.60822119	         -4.74011969	         35.54554324	         -0.49311651	         -1.77100590	        -22.31916254	        -18.74881398	        -18.45557544	          2.75411162	         23.42817202	         -4.39546442	        -13.49360526	         -0.66628647	         40.21827667	          0.63774586	          0.72755632	         -1.23525044	         -1.69691609	          1.26849680	        -13.91920515	         14.78398555	         -2.64778590	        -13.54563590	         16.42261445	         16.47506450	         13.32688012	         86.51662706	         86.51662706	          0.50889949	          0.05000032	          0.05000016	          0.58824893	          0.06197925	          0.05600326	          0.05567148	          0.38620750	          0.05933961	          0.11241273	          0.06199315	          0.07681250	          0.06730847	          0.05000256	          0.08379161	          0.24051180	          0.12528253	          0.05001412	          0.05000179	          0.05000688	          0.05000453	          0.05000152	          0.14713449	          0.12040303	          0.05000013	          0.05000041	          0.05246709	          0.18125470	          0.09519825	          0.09519825	          0.09519823	          0.07449540	          0.10442994	          0.05000019	          0.07711862	          0.08586215	          0.09926487	          0.06414415	          0.17021715	          0.20165445	          0.34179476	          0.52670745	          0.10878857	          0.17352060	          0.05000003	          0.05000009	          0.19213986	          0.41550374	          0.63251644	          0.14407217	          0.21808406	          0.42353438	          0.05000038	          0.06197076	          0.05000113	          0.06197193	          0.06196644	          0.06197007	          0.06197128	          0.06197088	          0.06197117	          0.07176082	          0.05000192	          0.05009099	          0.06198021	          0.26779177	          0.20499469	          0.12800788	          0.06197154	          0.06197157	          0.12853393	          0.23806881	          0.39376716	          0.07286061	          0.30906500	          0.36520715	          0.33990303	          0.05000004	          0.05000008	          0.05000001	          0.05000004	          0.05000044	          0.05000030	          0.81960685	          0.38681062	          0.19351604	          0.71132789	          0.79093355	          0.46349069	          0.10872586	          0.14840826	          0.06197150	
